<svg version="1.1" viewBox="0 0 705.897 705.897" height="705.897" width="705.897" xml:space="preserve" xmlns="http://www.w3.org/2000/svg">
  <path class="line" fill="#000" d="M352.95 0a7.5 7.5 0 00-7.5 7.5v78.146a7.5 7.5 0 007.5 7.5 7.5 7.5 0 007.5-7.5V7.5a7.5 7.5 0 00-7.5-7.5z" />
  <path class="line" fill="#000" d="M383.709 1.342a7.5 7.5 0 00-8.125 6.818l-6.81 77.85a7.5 7.5 0 006.818 8.125 7.5 7.5 0 008.125-6.817l6.81-77.851a7.5 7.5 0 00-6.818-8.125z" />
  <path class="line" fill="#000" d="M414.238 5.361a7.5 7.5 0 00-8.69 6.084l-13.57 76.961a7.5 7.5 0 006.084 8.688 7.5 7.5 0 008.69-6.084l13.568-76.96a7.5 7.5 0 00-6.082-8.689z" />
  <path class="line" fill="#000" d="M444.299 12.027a7.5 7.5 0 00-9.186 5.303l-20.226 75.484a7.5 7.5 0 005.302 9.186 7.5 7.5 0 009.186-5.305l20.227-75.482a7.5 7.5 0 00-5.303-9.186z" />
  <path class="line" fill="#000" d="M473.666 21.285a7.5 7.5 0 00-9.613 4.483L437.324 99.2a7.5 7.5 0 004.483 9.613 7.5 7.5 0 009.611-4.482l26.73-73.434a7.5 7.5 0 00-4.482-9.613z" />
  <path class="line" fill="#000" d="M496.375 32.818a7.5 7.5 0 00-4.23 3.88l-33.028 70.823a7.5 7.5 0 003.63 9.967 7.5 7.5 0 009.966-3.627l33.025-70.826a7.5 7.5 0 00-3.627-9.967 7.5 7.5 0 00-5.736-.25z" />
  <path class="line" fill="#000" d="M523.732 46.537a7.5 7.5 0 00-4.554 3.494l-39.073 67.678a7.5 7.5 0 002.745 10.246 7.5 7.5 0 0010.246-2.746l39.072-67.678a7.5 7.5 0 00-2.744-10.246 7.5 7.5 0 00-5.692-.748z" />
  <path class="line" fill="#000" d="M549.787 62.588a7.5 7.5 0 00-4.84 3.084l-44.824 64.014a7.5 7.5 0 001.842 10.445 7.5 7.5 0 0010.445-1.842l44.824-64.014a7.5 7.5 0 00-1.841-10.445 7.5 7.5 0 00-5.606-1.242z" />
  <path class="line" fill="#000" d="M574.346 80.848a7.5 7.5 0 00-5.092 2.652l-50.233 59.863a7.5 7.5 0 00.924 10.567 7.5 7.5 0 0010.567-.924l50.232-59.865a7.5 7.5 0 00-.924-10.567 7.5 7.5 0 00-5.474-1.726z" />
  <path class="line" fill="#000" d="M597.219 101.18a7.5 7.5 0 00-5.305 2.195l-55.258 55.26a7.5 7.5 0 000 10.607 7.5 7.5 0 0010.608 0l55.257-55.26a7.5 7.5 0 000-10.607 7.5 7.5 0 00-5.302-2.195z" />
  <path class="line" fill="#000" d="M618.23 123.428a7.5 7.5 0 00-5.474 1.726l-59.863 50.23a7.5 7.5 0 00-.926 10.567 7.5 7.5 0 0010.566.924l59.865-50.23a7.5 7.5 0 00.924-10.567 7.5 7.5 0 00-5.092-2.65z" />
  <path class="line" fill="#000" d="M637.225 147.422a7.5 7.5 0 00-5.604 1.242l-64.014 44.822a7.5 7.5 0 00-1.841 10.446 7.5 7.5 0 0010.445 1.841l64.014-44.822a7.5 7.5 0 001.841-10.445 7.5 7.5 0 00-4.841-3.084z" />
  <path class="line" fill="#000" d="M654.057 172.98a7.5 7.5 0 00-5.692.749l-67.678 39.074a7.5 7.5 0 00-2.744 10.246 7.5 7.5 0 0010.245 2.744l67.677-39.074a7.5 7.5 0 002.746-10.244 7.5 7.5 0 00-4.554-3.495z" />
  <path class="line" fill="#000" d="M668.596 199.908a7.5 7.5 0 00-5.735.25l-70.824 33.028a7.5 7.5 0 00-3.629 9.966 7.5 7.5 0 009.967 3.627l70.826-33.025a7.5 7.5 0 003.627-9.967 7.5 7.5 0 00-4.232-3.879z" />
  <path class="line" fill="#000" d="M674.998 227.75l-73.434 26.729a7.5 7.5 0 00-4.482 9.613 7.5 7.5 0 009.613 4.482l73.434-26.728a7.5 7.5 0 004.482-9.614 7.5 7.5 0 00-9.613-4.482z" />
  <path class="line" fill="#000" d="M684.686 256.295L609.2 276.52a7.5 7.5 0 00-5.303 9.186 7.5 7.5 0 009.186 5.303l75.482-20.225a7.5 7.5 0 005.305-9.185 7.5 7.5 0 00-9.185-5.305z" />
  <path class="line" fill="#000" d="M691.846 285.576l-76.96 13.57a7.5 7.5 0 00-6.081 8.688 7.5 7.5 0 008.687 6.084l76.96-13.57a7.5 7.5 0 006.083-8.688 7.5 7.5 0 00-8.69-6.084z" />
  <path class="line" fill="#000" d="M696.43 315.37l-77.85 6.81a7.5 7.5 0 00-6.818 8.127 7.5 7.5 0 008.125 6.816l77.85-6.81a7.5 7.5 0 006.818-8.125 7.5 7.5 0 00-8.125-6.819z" />
  <path class="line" fill="#000" d="M620.25 345.45a7.5 7.5 0 00-7.5 7.5 7.5 7.5 0 007.5 7.5h78.146a7.5 7.5 0 007.5-7.5 7.5 7.5 0 00-7.5-7.5z" />
  <path class="line" fill="#000" d="M619.887 368.773a7.5 7.5 0 00-8.125 6.819 7.5 7.5 0 006.818 8.125l77.85 6.81a7.5 7.5 0 008.125-6.818 7.5 7.5 0 00-6.819-8.125z" />
  <path class="line" fill="#000" d="M617.492 391.979a7.5 7.5 0 00-8.687 6.084 7.5 7.5 0 006.082 8.689l76.959 13.568a7.5 7.5 0 008.69-6.082 7.5 7.5 0 00-6.085-8.69z" />
  <path class="line" fill="#000" d="M613.084 414.887a7.5 7.5 0 00-9.186 5.302 7.5 7.5 0 005.303 9.186l75.485 20.227a7.5 7.5 0 009.185-5.303 7.5 7.5 0 00-5.305-9.186z" />
  <path class="line" fill="#000" d="M606.695 437.324a7.5 7.5 0 00-9.613 4.483 7.5 7.5 0 004.482 9.611l73.434 26.728a7.5 7.5 0 009.613-4.482 7.5 7.5 0 00-4.482-9.613z" />
  <path class="line" fill="#000" d="M592.64 458.867a7.5 7.5 0 00-4.232 3.88 7.5 7.5 0 003.63 9.966l70.823 33.025a7.5 7.5 0 009.967-3.627 7.5 7.5 0 00-3.627-9.966l-70.826-33.028a7.5 7.5 0 00-5.734-.25z" />
  <path class="line" fill="#000" d="M582.496 479.355a7.5 7.5 0 00-4.553 3.495 7.5 7.5 0 002.745 10.246l67.677 39.072a7.5 7.5 0 0010.246-2.744 7.5 7.5 0 00-2.746-10.246l-67.678-39.073a7.5 7.5 0 00-5.69-.75z" />
  <path class="line" fill="#000" d="M570.607 498.88a7.5 7.5 0 00-4.841 3.085 7.5 7.5 0 001.841 10.445l64.014 44.824a7.5 7.5 0 0010.445-1.841 7.5 7.5 0 00-1.841-10.446l-64.012-44.824a7.5 7.5 0 00-5.606-1.242z" />
  <path class="line" fill="#000" d="M557.059 517.295a7.5 7.5 0 00-5.092 2.65 7.5 7.5 0 00.926 10.567l59.863 50.232a7.5 7.5 0 0010.566-.924 7.5 7.5 0 00-.924-10.566l-59.865-50.233a7.5 7.5 0 00-5.474-1.726z" />
  <path class="line" fill="#000" d="M541.96 534.46a7.5 7.5 0 00-5.304 2.196 7.5 7.5 0 000 10.608l55.258 55.257a7.5 7.5 0 0010.607 0 7.5 7.5 0 000-10.607l-55.257-55.258a7.5 7.5 0 00-5.303-2.195z" />
  <path class="line" fill="#000" d="M525.42 550.242a7.5 7.5 0 00-5.475 1.725 7.5 7.5 0 00-.924 10.566l50.233 59.865a7.5 7.5 0 0010.566.924 7.5 7.5 0 00.924-10.566l-50.232-59.863a7.5 7.5 0 00-5.092-2.65z" />
  <path class="line" fill="#000" d="M507.568 564.523a7.5 7.5 0 00-5.603 1.243 7.5 7.5 0 00-1.842 10.447l44.824 64.012a7.5 7.5 0 0010.446 1.841 7.5 7.5 0 001.841-10.445l-44.824-64.014a7.5 7.5 0 00-4.842-3.084z" />
  <path class="line" fill="#000" d="M488.541 577.193a7.5 7.5 0 00-5.691.75 7.5 7.5 0 00-2.745 10.245l39.073 67.677a7.5 7.5 0 0010.246 2.746 7.5 7.5 0 002.744-10.246l-39.072-67.678a7.5 7.5 0 00-4.555-3.494z" />
  <path class="line" fill="#000" d="M468.48 588.158a7.5 7.5 0 00-5.734.25 7.5 7.5 0 00-3.629 9.967l33.028 70.826a7.5 7.5 0 009.966 3.627 7.5 7.5 0 003.627-9.967l-33.025-70.824a7.5 7.5 0 00-4.233-3.879z" />
  <path class="line" fill="#000" d="M441.807 597.082a7.5 7.5 0 00-4.483 9.613l26.727 73.434a7.5 7.5 0 009.613 4.482 7.5 7.5 0 004.482-9.613l-26.728-73.434a7.5 7.5 0 00-9.611-4.482z" />
  <path class="line" fill="#000" d="M420.19 603.898a7.5 7.5 0 00-5.303 9.186l20.226 75.482a7.5 7.5 0 009.186 5.305 7.5 7.5 0 005.303-9.185L429.375 609.2a7.5 7.5 0 00-9.186-5.303z" />
  <path class="line" fill="#000" d="M398.063 608.805a7.5 7.5 0 00-6.084 8.687l13.57 76.96a7.5 7.5 0 008.69 6.083 7.5 7.5 0 006.081-8.69l-13.568-76.958a7.5 7.5 0 00-8.69-6.082z" />
  <path class="line" fill="#000" d="M375.592 611.762a7.5 7.5 0 00-6.819 8.125l6.811 77.85a7.5 7.5 0 008.125 6.818 7.5 7.5 0 006.818-8.125l-6.81-77.85a7.5 7.5 0 00-8.125-6.818z" />
  <path class="line" fill="#000" d="M352.95 612.75a7.5 7.5 0 00-7.5 7.5v78.146a7.5 7.5 0 007.5 7.5 7.5 7.5 0 007.5-7.5V620.25a7.5 7.5 0 00-7.5-7.5z" />
  <path class="line" fill="#000" d="M330.307 611.762a7.5 7.5 0 00-8.127 6.818l-6.81 77.85a7.5 7.5 0 006.816 8.125 7.5 7.5 0 008.125-6.819l6.812-77.85a7.5 7.5 0 00-6.816-8.124z" />
  <path class="line" fill="#000" d="M307.834 608.803a7.5 7.5 0 00-8.688 6.084l-13.57 76.959a7.5 7.5 0 006.084 8.69 7.5 7.5 0 008.688-6.085l13.57-76.959a7.5 7.5 0 00-6.084-8.69z" />
  <path class="line" fill="#000" d="M285.707 603.898a7.5 7.5 0 00-9.186 5.303l-20.226 75.485a7.5 7.5 0 005.305 9.185 7.5 7.5 0 009.185-5.305l20.225-75.482a7.5 7.5 0 00-5.303-9.186z" />
  <path class="line" fill="#000" d="M264.092 597.082a7.5 7.5 0 00-9.613 4.482l-26.729 73.434a7.5 7.5 0 004.482 9.613 7.5 7.5 0 009.614-4.482l26.728-73.434a7.5 7.5 0 00-4.482-9.613z" />
  <path class="line" fill="#000" d="M237.416 588.158a7.5 7.5 0 00-4.23 3.88l-33.028 70.823a7.5 7.5 0 003.63 9.967 7.5 7.5 0 009.966-3.627l33.025-70.826a7.5 7.5 0 00-3.627-9.967 7.5 7.5 0 00-5.736-.25z" />
  <path class="line" fill="#000" d="M217.357 577.193a7.5 7.5 0 00-4.554 3.495l-39.074 67.677a7.5 7.5 0 002.746 10.246 7.5 7.5 0 0010.244-2.746l39.074-67.678a7.5 7.5 0 00-2.744-10.244 7.5 7.5 0 00-5.692-.75z" />
  <path class="line" fill="#000" d="M198.328 564.523a7.5 7.5 0 00-4.84 3.084l-44.824 64.014a7.5 7.5 0 001.842 10.445 7.5 7.5 0 0010.445-1.841l44.824-64.014a7.5 7.5 0 00-1.841-10.445 7.5 7.5 0 00-5.606-1.243z" />
  <path class="line" fill="#000" d="M180.477 550.242a7.5 7.5 0 00-5.092 2.65l-50.23 59.864a7.5 7.5 0 00.923 10.566 7.5 7.5 0 0010.567-.924l50.232-59.865a7.5 7.5 0 00-.926-10.566 7.5 7.5 0 00-5.474-1.725z" />
  <path class="line" fill="#000" d="M163.938 534.459a7.5 7.5 0 00-5.303 2.197l-55.258 55.258a7.5 7.5 0 000 10.607 7.5 7.5 0 0010.605 0l55.26-55.26a7.5 7.5 0 000-10.605 7.5 7.5 0 00-5.304-2.197z" />
  <path class="line" fill="#000" d="M148.838 517.295a7.5 7.5 0 00-5.475 1.726L83.5 569.254a7.5 7.5 0 00-.926 10.566 7.5 7.5 0 0010.567.924l59.865-50.232a7.5 7.5 0 00.924-10.567 7.5 7.5 0 00-5.092-2.65z" />
  <path class="line" fill="#000" d="M135.291 498.88a7.5 7.5 0 00-5.605 1.243l-64.014 44.824a7.5 7.5 0 00-1.842 10.446 7.5 7.5 0 0010.445 1.841l64.014-44.824a7.5 7.5 0 001.842-10.445 7.5 7.5 0 00-4.84-3.084z" />
  <path class="line" fill="#000" d="M123.4 479.355a7.5 7.5 0 00-5.691.749l-67.678 39.074a7.5 7.5 0 00-2.746 10.246 7.5 7.5 0 0010.246 2.744l67.678-39.074a7.5 7.5 0 002.746-10.244 7.5 7.5 0 00-4.555-3.495z" />
  <path class="line" fill="#000" d="M113.256 458.867a7.5 7.5 0 00-5.735.25l-70.824 33.028a7.5 7.5 0 00-3.629 9.966 7.5 7.5 0 009.967 3.627l70.826-33.025a7.5 7.5 0 003.627-9.967 7.5 7.5 0 00-4.232-3.879z" />
  <path class="line" fill="#000" d="M99.201 437.324l-73.433 26.727a7.5 7.5 0 00-4.483 9.613 7.5 7.5 0 009.613 4.482l73.434-26.728a7.5 7.5 0 004.482-9.611 7.5 7.5 0 00-9.613-4.483z" />
  <path class="line" fill="#000" d="M92.814 414.887l-75.486 20.226a7.5 7.5 0 00-5.303 9.186 7.5 7.5 0 009.186 5.303l75.484-20.227a7.5 7.5 0 005.305-9.186 7.5 7.5 0 00-9.186-5.302z" />
  <path class="line" fill="#000" d="M88.406 391.979l-76.96 13.57a7.5 7.5 0 00-6.085 8.69 7.5 7.5 0 008.69 6.081l76.959-13.568a7.5 7.5 0 006.084-8.69 7.5 7.5 0 00-8.688-6.083z" />
  <path class="line" fill="#000" d="M86.012 368.775l-77.85 6.809a7.5 7.5 0 00-6.818 8.125 7.5 7.5 0 008.125 6.818l77.85-6.81a7.5 7.5 0 006.818-8.125 7.5 7.5 0 00-8.125-6.817z" />
  <path class="line" fill="#000" d="M7.5 345.45a7.5 7.5 0 00-7.5 7.5 7.5 7.5 0 007.5 7.5h78.146a7.5 7.5 0 007.5-7.5 7.5 7.5 0 00-7.5-7.5z" />
  <path class="line" fill="#000" d="M9.469 315.37a7.5 7.5 0 00-8.125 6.816 7.5 7.5 0 006.818 8.125l77.85 6.812a7.5 7.5 0 008.125-6.816 7.5 7.5 0 00-6.819-8.127z" />
  <path class="line" fill="#000" d="M14.05 285.576a7.5 7.5 0 00-8.689 6.084 7.5 7.5 0 006.084 8.688l76.961 13.57a7.5 7.5 0 008.688-6.084 7.5 7.5 0 00-6.084-8.688z" />
  <path class="line" fill="#000" d="M21.21 256.295a7.5 7.5 0 00-9.185 5.305 7.5 7.5 0 005.303 9.185l75.486 20.225a7.5 7.5 0 009.186-5.303 7.5 7.5 0 00-5.305-9.186z" />
  <path class="line" fill="#000" d="M30.898 227.75a7.5 7.5 0 00-9.613 4.482 7.5 7.5 0 004.483 9.614L99.2 268.574a7.5 7.5 0 009.613-4.482 7.5 7.5 0 00-4.482-9.613z" />
  <path class="line" fill="#000" d="M37.3 199.908a7.5 7.5 0 00-4.232 3.88 7.5 7.5 0 003.63 9.966l70.823 33.025a7.5 7.5 0 009.967-3.627 7.5 7.5 0 00-3.627-9.966l-70.826-33.028a7.5 7.5 0 00-5.734-.25z" />
  <path class="line" fill="#000" d="M51.84 172.98a7.5 7.5 0 00-4.555 3.495 7.5 7.5 0 002.746 10.244l67.678 39.074a7.5 7.5 0 0010.246-2.744 7.5 7.5 0 00-2.746-10.246l-67.678-39.074a7.5 7.5 0 00-5.691-.749z" />
  <path class="line" fill="#000" d="M68.672 147.422a7.5 7.5 0 00-4.842 3.084 7.5 7.5 0 001.842 10.445l64.014 44.824a7.5 7.5 0 0010.445-1.841 7.5 7.5 0 00-1.842-10.446l-64.014-44.824a7.5 7.5 0 00-5.603-1.242z" />
  <path class="line" fill="#000" d="M87.666 123.426a7.5 7.5 0 00-5.092 2.65 7.5 7.5 0 00.926 10.567l59.863 50.232a7.5 7.5 0 0010.567-.924 7.5 7.5 0 00-.924-10.566L93.14 125.152a7.5 7.5 0 00-5.475-1.726z" />
  <path class="line" fill="#000" d="M108.68 101.18a7.5 7.5 0 00-5.303 2.197 7.5 7.5 0 000 10.605l55.258 55.26a7.5 7.5 0 0010.607 0 7.5 7.5 0 000-10.607l-55.26-55.258a7.5 7.5 0 00-5.302-2.197z" />
  <path class="line" fill="#000" d="M131.553 80.848a7.5 7.5 0 00-5.475 1.726 7.5 7.5 0 00-.924 10.567l50.23 59.865a7.5 7.5 0 0010.567.924 7.5 7.5 0 00.926-10.567L136.645 83.5a7.5 7.5 0 00-5.092-2.652z" />
  <path class="line" fill="#000" d="M156.11 62.588a7.5 7.5 0 00-5.604 1.242 7.5 7.5 0 00-1.842 10.445l44.824 64.014a7.5 7.5 0 0010.446 1.842 7.5 7.5 0 001.841-10.445l-44.824-64.014a7.5 7.5 0 00-4.842-3.084z" />
  <path class="line" fill="#000" d="M182.166 46.537a7.5 7.5 0 00-5.691.748 7.5 7.5 0 00-2.746 10.246l39.074 67.678a7.5 7.5 0 0010.246 2.746 7.5 7.5 0 002.744-10.246l-39.074-67.678a7.5 7.5 0 00-4.553-3.494z" />
  <path class="line" fill="#000" d="M209.521 32.818a7.5 7.5 0 00-5.734.25 7.5 7.5 0 00-3.629 9.967l33.028 70.826a7.5 7.5 0 009.966 3.627 7.5 7.5 0 003.627-9.967l-33.025-70.824a7.5 7.5 0 00-4.233-3.879z" />
  <path class="line" fill="#000" d="M232.232 21.285a7.5 7.5 0 00-4.482 9.613l26.729 73.434a7.5 7.5 0 009.613 4.482 7.5 7.5 0 004.482-9.613l-26.728-73.433a7.5 7.5 0 00-9.614-4.483z" />
  <path class="line" fill="#000" d="M261.6 12.025a7.5 7.5 0 00-5.305 9.186l20.226 75.484a7.5 7.5 0 009.186 5.305 7.5 7.5 0 005.303-9.186l-20.225-75.486a7.5 7.5 0 00-9.185-5.303z" />
  <path class="line" fill="#000" d="M291.66 5.361a7.5 7.5 0 00-6.084 8.69l13.57 76.959a7.5 7.5 0 008.688 6.084 7.5 7.5 0 006.084-8.688l-13.57-76.96a7.5 7.5 0 00-8.688-6.085z" />
  <path class="line" fill="#000" d="M322.186 1.344a7.5 7.5 0 00-6.817 8.125l6.81 77.85a7.5 7.5 0 008.128 6.818 7.5 7.5 0 006.816-8.125l-6.812-77.85a7.5 7.5 0 00-8.125-6.818z" />
  <path class="minutes" fill="#000" d="M318.726 467.266l3.891 68.695h-8.331l-2.145-35.87q-.25-4.788-.4-9.777-.1-4.989-.15-9.03-.049-4.09 0-6.086l-11.573 48.44h-8.68l-12.422-48.44q.1 1.945.15 6.186.049 4.24 0 9.279-.05 5.039-.25 9.329l-1.846 35.969h-8.132l3.891-68.695h12.073l11.125 47.044 10.626-47.044z" />
  <path class="minutes" fill="#000" d="M375.248 467.266v6.934h-15.265v54.827h15.265v6.934h-39.311v-6.934h15.266V474.2h-15.266v-6.934z" />
  <path class="minutes" fill="#000" d="M424.936 535.961l-24.195-60.414q.05 1.497.35 5.687.298 4.14.548 9.579.25 5.387.25 10.725v34.423h-8.033v-68.695h11.724l24.595 60.663q-.05-1.447-.35-5.288-.299-3.891-.548-9.329-.25-5.488-.25-11.674v-34.372h8.032v68.695z" />
  <path class="counter counter5 initialInvis" fill="#000" d="M272.418 201.803c-21.079 0-37.079 8.734-47.998 26.205-10.825 17.47-16.237 42.443-16.237 74.916 0 32.567 5.412 57.635 16.237 75.2 10.919 17.472 26.919 26.206 47.998 26.206 21.079 0 37.029-8.734 47.853-26.205 10.92-17.566 16.38-42.634 16.38-75.201 0-32.473-5.46-57.446-16.38-74.916-10.824-17.471-26.774-26.205-47.853-26.205zm120.347 3.132v97.989h19.227c5.697-2.09 10.778-3.703 15.24-4.842 4.463-1.14 9.591-1.71 15.383-1.71 6.551 0 12.486 1.329 17.803 3.987 5.412 2.564 9.685 6.884 12.818 12.961 3.133 6.077 4.7 14.387 4.7 24.926 0 15.192-3.609 26.727-10.825 34.607-7.216 7.786-17.28 11.68-30.193 11.68-16.522 0-30.622-6.03-42.301-18.088l-14.813 14.242c7.596 7.406 16 13.2 25.21 17.377 9.304 4.178 19.845 6.266 31.619 6.266 13.482 0 25.162-2.705 35.037-8.117 9.97-5.507 17.66-13.152 23.072-22.932 5.507-9.78 8.26-21.221 8.26-34.324 0-19.56-4.938-34.704-14.813-45.434-9.875-10.729-22.787-16.093-38.738-16.093-5.887 0-11.537.617-16.95 1.851-5.316 1.234-10.965 3.42-16.947 6.553V224.02h77.479l3.56-19.086zM272.418 221.03c11.394 0 20.08 4.225 26.062 12.676l-59.96 120.492c-3.324-12.438-4.985-29.53-4.985-51.273 0-29.055 3.465-49.943 10.396-62.666 6.932-12.819 16.428-19.229 28.487-19.229zm33.896 30.479c3.418 12.343 5.127 29.482 5.127 51.416 0 29.054-3.465 49.99-10.396 62.808-6.932 12.818-16.474 19.229-28.627 19.229-11.204 0-19.798-4.178-25.78-12.533z" />
  <path class="counter counter4 initialInvis" fill="#000" d="M272.416 201.804c-21.08 0-37.077 8.734-47.996 26.205-10.825 17.47-16.237 42.443-16.237 74.916 0 32.567 5.412 57.635 16.237 75.2 10.919 17.472 26.917 26.206 47.996 26.206s37.03-8.734 47.855-26.205c10.92-17.566 16.38-42.634 16.38-75.201 0-32.473-5.46-57.446-16.38-74.916-10.824-17.471-26.776-26.205-47.855-26.205zm163.504 0l-57.541 134.164v17.375h81.468l.14 47.713h23.075v-47.713h25.352v-19.084h-25.352v-55.688h-19.94l-3.134 55.688H403.73l52.13-124.053zM272.416 221.03c11.394 0 20.082 4.225 26.064 12.676l-59.96 120.492c-3.324-12.438-4.985-29.53-4.985-51.273 0-29.055 3.465-49.943 10.396-62.666 6.932-12.819 16.426-19.229 28.485-19.229zm33.896 30.479c3.418 12.343 5.13 29.482 5.13 51.416 0 29.054-3.468 49.99-10.4 62.808-6.93 12.818-16.473 19.229-28.626 19.229-11.204 0-19.798-4.178-25.78-12.533z" />
  <path class="counter counter3 initialInvis" fill="#000" d="M272.418 201.804c-21.079 0-37.079 8.734-47.998 26.205-10.824 17.47-16.236 42.443-16.236 74.916 0 32.567 5.412 57.635 16.236 75.2 10.92 17.472 26.92 26.206 47.998 26.206 21.079 0 37.03-8.734 47.853-26.205 10.92-17.566 16.38-42.634 16.38-75.201 0-32.473-5.46-57.446-16.38-74.916-10.824-17.471-26.774-26.205-47.853-26.205zm161.936 0c-9.97 0-19.655 1.804-29.055 5.412-9.4 3.513-18.277 9.209-26.633 17.09l13.244 14.67c6.457-6.077 12.867-10.586 19.229-13.53 6.361-3.038 13.814-4.558 22.359-4.558 10.255 0 18.99 2.85 26.207 8.546 7.216 5.697 10.824 13.957 10.824 24.782 0 7.786-1.804 14.194-5.412 19.226-3.608 5.033-8.26 8.784-13.957 11.252-5.602 2.469-11.584 3.703-17.945 3.703h-11.537l-2.99 18.944h16.52c11.583 0 21.222 2.705 28.913 8.117 7.786 5.412 11.678 15.097 11.678 29.055 0 12.343-3.846 22.123-11.537 29.34-7.691 7.12-18.372 10.681-32.045 10.681-7.976 0-15.857-1.613-23.643-4.842-7.69-3.228-14.337-8.118-19.94-14.67l-16.093 13.104c7.501 9.115 16.664 15.762 27.488 19.94 10.825 4.177 21.744 6.265 32.758 6.265 13.578 0 25.446-2.612 35.606-7.834 10.254-5.222 18.23-12.343 23.927-21.363 5.697-9.115 8.545-19.322 8.545-30.621 0-10.065-2.135-18.563-6.408-25.495-4.178-6.93-9.685-12.248-16.522-15.95-6.74-3.799-13.957-5.982-21.648-6.552 6.931-1.329 13.292-4.083 19.084-8.261 5.792-4.178 10.446-9.447 13.959-15.809 3.513-6.456 5.27-13.673 5.27-21.648 0-8.926-2.47-17.092-7.407-24.498-4.842-7.406-11.774-13.34-20.795-17.803-9.02-4.463-19.701-6.693-32.044-6.693zM272.418 221.03c11.394 0 20.08 4.225 26.062 12.676l-59.96 120.492c-3.324-12.438-4.985-29.53-4.985-51.273 0-29.055 3.465-49.943 10.397-62.666 6.93-12.819 16.427-19.229 28.486-19.229zm33.896 30.479c3.419 12.343 5.127 29.482 5.127 51.416 0 29.054-3.465 49.99-10.396 62.808-6.931 12.818-16.474 19.229-28.627 19.229-11.204 0-19.797-4.178-25.78-12.533z" />
  <path class="counter counter2 initialInvis" fill="#000" d="M272.415 201.804c-21.079 0-37.079 8.734-47.998 26.205-10.824 17.47-16.236 42.443-16.236 74.916 0 32.567 5.412 57.635 16.236 75.2 10.92 17.472 26.92 26.206 47.998 26.206 21.079 0 37.031-8.734 47.856-26.205 10.919-17.566 16.379-42.634 16.379-75.201 0-32.473-5.46-57.446-16.38-74.916-10.824-17.471-26.776-26.205-47.855-26.205zm162.221 0c-13.293 0-24.687 2.326-34.182 6.978-9.4 4.558-17.993 11.583-25.779 21.078l16.521 12.819c6.172-7.312 12.344-12.628 18.516-15.952 6.172-3.323 14.1-4.984 23.785-4.984 11.014 0 19.608 3.181 25.78 9.543 6.171 6.362 9.257 15.048 9.257 26.063 0 7.975-1.282 15.666-3.845 23.072-2.469 7.406-6.932 15.573-13.389 24.498-6.457 8.83-15.572 19.37-27.346 31.619-11.678 12.248-26.776 27.25-45.29 45.006v19.512H495.31l2.99-20.368h-92.434c16.142-14.717 29.816-27.82 41.02-39.308 11.204-11.49 20.224-21.934 27.06-31.334 6.932-9.495 11.963-18.515 15.096-27.06 3.134-8.641 4.7-17.47 4.7-26.491 0-10.35-2.372-19.655-7.12-27.916-4.652-8.26-11.394-14.764-20.224-19.512-8.83-4.842-19.419-7.263-31.762-7.263zm-162.22 19.226c11.393 0 20.082 4.225 26.064 12.676l-59.962 120.492c-3.323-12.438-4.987-29.53-4.987-51.273 0-29.055 3.468-49.943 10.399-62.666 6.931-12.819 16.426-19.229 28.484-19.229zm33.896 30.479c3.418 12.343 5.127 29.482 5.127 51.416 0 29.054-3.465 49.99-10.397 62.808-6.931 12.818-16.473 19.229-28.627 19.229-11.204 0-19.797-4.178-25.779-12.533z" />
  <path class="counter counter1 initialInvis" fill="#000" d="M272.416 201.804c-21.079 0-37.077 8.734-47.996 26.205-10.824 17.47-16.236 42.443-16.236 74.916 0 32.567 5.412 57.635 16.236 75.2 10.919 17.472 26.917 26.206 47.996 26.206s37.031-8.734 47.855-26.205c10.92-17.566 16.38-42.634 16.38-75.201 0-32.473-5.46-57.446-16.38-74.916-10.824-17.471-26.776-26.205-47.855-26.205zm170.91 3.132l-58.394 36.176 10.396 17.092 45.008-27.346v150.686h-48.283v19.512H505.28v-19.512h-41.02V204.936zm-170.91 16.094c11.394 0 20.083 4.225 26.064 12.676l-59.96 120.492c-3.324-12.438-4.985-29.53-4.985-51.273 0-29.055 3.465-49.943 10.397-62.666 6.93-12.819 16.425-19.229 28.484-19.229zm33.898 30.479c3.419 12.343 5.127 29.482 5.127 51.416 0 29.054-3.465 49.99-10.396 62.808-6.931 12.818-16.475 19.229-28.629 19.229-11.204 0-19.795-4.178-25.777-12.533z" />
  <path class="counter counter0 initialInvis" fill="#000" d="M272.417 201.804c-21.079 0-37.079 8.734-47.998 26.205-10.824 17.47-16.236 42.443-16.236 74.916 0 32.567 5.412 57.635 16.236 75.2 10.92 17.472 26.92 26.206 47.998 26.206 21.08 0 37.03-8.734 47.854-26.205 10.919-17.566 16.379-42.634 16.379-75.201 0-32.473-5.46-57.446-16.38-74.916-10.823-17.471-26.774-26.205-47.853-26.205zm170.909 0c-21.08 0-37.077 8.734-47.997 26.205-10.824 17.47-16.236 42.443-16.236 74.916 0 32.567 5.412 57.635 16.236 75.2 10.92 17.472 26.918 26.206 47.997 26.206 21.078 0 37.03-8.734 47.855-26.205 10.92-17.566 16.379-42.634 16.379-75.201 0-32.473-5.46-57.446-16.38-74.916-10.823-17.471-26.776-26.205-47.854-26.205zM272.417 221.03c11.394 0 20.081 4.225 26.063 12.676l-59.96 120.492c-3.322-12.438-4.985-29.53-4.985-51.273 0-29.055 3.467-49.943 10.398-62.666 6.931-12.819 16.426-19.229 28.484-19.229zm170.909 0c11.393 0 20.082 4.225 26.064 12.676l-59.96 120.492c-3.324-12.438-4.985-29.53-4.985-51.273 0-29.055 3.465-49.943 10.396-62.666 6.931-12.819 16.426-19.229 28.485-19.229zm-137.012 30.479c3.418 12.343 5.127 29.482 5.127 51.416 0 29.054-3.465 49.99-10.397 62.808-6.931 12.818-16.473 19.229-28.627 19.229-11.204 0-19.797-4.178-25.779-12.533zm170.91 0c3.418 12.343 5.127 29.482 5.127 51.416 0 29.054-3.465 49.99-10.397 62.808-6.93 12.818-16.475 19.229-28.628 19.229-11.205 0-19.796-4.178-25.778-12.533z" />
</svg>
